# xmcd
#
# Track frame offsets:
#	150
#	9453
#	20665
#	32983
#	44323
#	54785
#	68095
#	78755
#	90973
#	105103
#	126100
#	138605
#
# Disc length: 2067 seconds
#
# Revision: 0
# Processed by: cddbd v1.5.2PL0 Copyright (c) Steve Scherf et al.
# Submitted via: audiograbber 1.83.01
#
DISCID=8808110c
DTITLE=Winter, Johnny - Gangster of Love
DYEAR=1993
DGENRE=Blues
TTITLE0=Road Runner
TTITLE1=Gangster Of Love
TTITLE2=Leave My Woman Alone
TTITLE3=I Can't Believe You Want To Leave
TTITLE4=That's What Love Does
TTITLE5=Five After Four AM
TTITLE6=Out Of Sight
TTITLE7=Parchman Farm
TTITLE8=Low Down Gal Of Mine
TTITLE9=Goin' Down Slow
TTITLE10=Leaving Blues
TTITLE11=Kind Hearted Woman
EXTD=
EXTT0=
EXTT1=
EXTT2=
EXTT3=
EXTT4=
EXTT5=
EXTT6=
EXTT7=
EXTT8=
EXTT9=
EXTT10=
EXTT11=
PLAYORDER=
